<svg xmlns="http://www.w3.org/2000/svg" version="1.1" xmlns:xlink="http://www.w3.org/1999/xlink" xmlns:svgjs="http://svgjs.com/svgjs" width="1980" height="1080" preserveAspectRatio="none" viewBox="0 0 1980 1080"><g mask="url(&quot;#SvgjsMask1294&quot;)" fill="none"><rect width="1980" height="1080" x="0" y="0" fill="rgba(181, 216, 251, 1)"></rect><path d="M 0,464 C 132,392.8 396,106.8 660,108 C 924,109.2 1056,461.4 1320,470 C 1584,478.6 1848,214.8 1980,151L1980 1080L0 1080z" fill="rgba(180, 233, 237, 1)"></path><path d="M 0,799 C 99,812.4 297,895.6 495,866 C 693,836.4 792,653.8 990,651 C 1188,648.2 1287,856.8 1485,852 C 1683,847.2 1881,672 1980,627L1980 1080L0 1080z" fill="rgba(255, 255, 255, 1)"></path></g><defs><mask id="SvgjsMask1294"><rect width="1980" height="1080" fill="#ffffff"></rect></mask></defs></svg>